<?xml version="1.0" encoding="utf-8"?>
<!-- Svg Vector Icons : http://www.sfont.cn -->
<!DOCTYPE svg PUBLIC "-//W3C//DTD SVG 1.1//EN" "http://www.w3.org/Graphics/SVG/1.1/DTD/svg11.dtd">
<svg version="1.1" xmlns="http://www.w3.org/2000/svg" xmlns:xlink="http://www.w3.org/1999/xlink" x="0px" y="0px" viewBox="0 0 1000 1000" enable-background="new 0 0 1000 1000" xml:space="preserve">
<metadata> Svg Vector Icons : http://www.sfont.cn </metadata>
<g><g><path d="M885.9,236.2c-6.6-3.1-13.7-4.7-20.3-4.7c-9.5,0-17.5,3.3-22.5,9.4c-29.4,35.8-56.3,105.4-78,161.4c-10,25.9-23.3,60.5-32.4,76.7c-5-47.6,16.4-219.3,24.6-285.4l0.1-1.1c5.7-45.9,6.6-54,6.3-57.6c-2.2-25.6-11.1-42.9-26.6-51.4c-15.6-8.6-36.8-6.8-60.2,5.3c-11.8,6.1-16.6,29.4-33.7,135.6l-0.1,0.5c-9.4,58.3-31.2,192.6-47.9,214.1c-14.9-32.7-25.8-213.2-30.6-291.4c-3.3-54.7-5.3-86.2-7.4-95.8c-4.5-20.1-28-38.6-52.4-41.2C484.7,8,467.2,17.2,458,34.7c-16.1,15.6-14.7,71.3-7.3,203.3c3.5,62.8,10.7,192.6-0.5,206.4c-20.2-3.6-49.4-86.7-86.9-246.9c-10.5-44.9-13.8-58.4-17.6-64.4c-6.8-20.7-33.7-38.2-59-38.2c-2.1,0-4.3,0.1-6.3,0.4c-13.3,1.7-44.1,11.8-41.7,68.3c12.3,79,27.5,137.4,42.3,194l0.3,1.1c8.8,34,17.2,66,24.6,101.5c17.4,83.7,4.8,134.1,4.7,134.6c-1.1,5.2-3,8.3-5.5,9.2c-0.9,0.3-2,0.5-3.3,0.5c-7.4,0-18-5.6-23.5-9.2c-11.2-25.8-67.3-148.6-124.6-169.1l-2.1-0.8l-2.1,0.1c-21.6,0.6-37.9,7.6-48.5,20.9c-16.8,21.1-12.5,49.7-11.3,55.4l0.7,2.1c0.4,0.9,41.2,89.9,45.7,130.2c3.9,34.6,33.6,73.9,57.5,105.5l1,1.3c7.8,10.3,14.5,19.3,19.7,27.5c69.9,84.2,184.5,159,185.4,159.7c14.1,12,21.6,23.3,21.9,32.5c0.1,6.1-3.2,9.4-3.3,9.5l-2.8,2.5l15.4,17.2l2.9-2.5c1.1-1,11.2-10.1,11.1-26.7c-0.1-16.5-10.5-33.7-31.3-51.3c-1.1-0.7-114.8-75.6-180.4-154.6c-5.2-8.4-13.3-19-21-29.2c-21-27.8-49.8-65.9-52.9-94.1c-4.7-42.1-42.2-125.5-47-136c-0.6-4.2-2.6-22.9,7-34.8c5.8-7.3,15.4-11.3,28.6-12c51.3,21.4,109.8,157.4,110.4,158.7l1.2,2.9l2.5,1.9c3.5,2.6,21.9,15.4,39.8,15.4c4.1,0,7.9-0.6,11.4-2c7.1-2.7,16.4-9.3,19.9-25.5c0.6-2.2,14.1-55.3-4.5-144.8c-7.4-35.8-15.9-68.6-25-103.2l-0.1-0.5c-14.6-55.8-29.6-113.4-41.7-190.5c-1.1-25.8,6.6-41,21.6-43c17.1-2.4,38.2,12.2,40.6,23.2l1.7,7.8l1.8,0.3c3.2,10.4,9.2,36.1,13.2,53.3c34,144.9,65.9,264.9,110.9,264.9c3.7,0,9-1.1,13.9-6.2c18.5-19.5,15.6-98,8.5-224.9c-3.4-61.5-9.8-175.9-0.9-184.4l3.3-1.8l1.6-3.4c4.2-9.1,11.3-13.7,21.1-13.7c1.2,0,2.4,0.1,3.5,0.2c14.3,1.5,30,12.8,32.3,23.2c1.8,8,4.1,46.3,6.8,90.6l0.1,1.5c15.4,253.6,25.5,315.5,51.7,315.5c29.7,0,44.3-59,72.9-236.4l0.1-0.7c7-43.4,17.6-108.8,22.3-118.4c15.4-7.7,29.3-9.6,37.4-5.1c10.3,5.7,13.7,21,14.7,32.6c0,3.2-3.1,28.6-6.2,53.2c-27.8,223.3-31.8,299.8-16.4,315.2c4.1,4,9.8,5.8,15,4.6c15.6-3.3,26-26.9,53.8-98.9c21-54.3,47.1-121.9,74.2-154.9c0.2-0.2,1.5-0.9,4.4-0.9c3.3,0,7.1,0.9,10.7,2.6c6.8,3.2,13.5,9.3,12.1,17.1c-7.1,38.9-38.9,147.5-62.2,226.8c-20.1,68.6-28.4,97.3-29.1,105c0,1.4-0.6,144.3-54.4,316.1l-17.8,60l22.3,6.6l17.7-59.8c53.7-171.5,55.4-320.7,55.3-321.7c0.5-5.4,15.9-57.5,28.2-99.6l0.3-1.1c24.5-83.9,55.1-188.2,62.4-228.2C914.1,261.3,904.3,244.7,885.9,236.2z"/></g><g></g><g></g><g></g><g></g><g></g><g></g><g></g><g></g><g></g><g></g><g></g><g></g><g></g><g></g><g></g></g>
</svg>